<?xml version="1.0" encoding="UTF-8" standalone="no"?>
<svg width="40" xmlns="http://www.w3.org/2000/svg" xmlns:xlink="http://www.w3.org/1999/xlink" height="40">
 <defs>
  <filter id="filter3734" y="-.1199" width="1.207" height="1.2398" x="-.10352">
   <feGaussianBlur id="feGaussianBlur3736" stdDeviation="0.177239"/>
  </filter>
  <filter id="filter3800" y="-.17462" width="1.1969" height="1.3492" x="-.098467">
   <feGaussianBlur id="feGaussianBlur3802" stdDeviation="0.217446"/>
  </filter>
  <filter id="filter3609" y="-.12565" width="1.1766" height="1.2513" x="-.088285">
   <feGaussianBlur id="feGaussianBlur3611" stdDeviation="0.790282"/>
  </filter>
  <filter id="filter3425">
   <feGaussianBlur id="feGaussianBlur3427" stdDeviation="0.391712"/>
  </filter>
  <linearGradient id="linearGradient3614">
   <stop id="stop3616" stop-color="#eeeeec" offset="0"/>
   <stop id="stop3630" stop-color="#eeeeec" offset=".81226"/>
   <stop id="stop3618" stop-color="#babdb6" offset="1"/>
  </linearGradient>
  <linearGradient id="linearGradient5019" y2=".58325" x2=".50003" y1=".58325" x1="1">
   <stop id="stop4642" stop-color="#555753" offset="0"/>
   <stop id="stop4644" stop-color="#555753" stop-opacity="0" offset="1"/>
  </linearGradient>
  <linearGradient id="linearGradient3738">
   <stop id="stop3740" stop-color="#eeeeec" offset="0"/>
   <stop id="stop3742" stop-color="#eeeeec" stop-opacity="0" offset="1"/>
  </linearGradient>
  <radialGradient id="radialGradient5011" xlink:href="#linearGradient3738" gradientUnits="userSpaceOnUse" cy="46.457" cx="14.098" gradientTransform="matrix(0.117 .023248 -.084741 .42648 17.839 16.082)" r="2.65"/>
  <radialGradient id="radialGradient5015" gradientUnits="userSpaceOnUse" cy="11.31" cx="18.102" gradientTransform="matrix(.93144 .058475 -.090368 1.4395 -.60268 -8.3899)" r="13.284">
   <stop id="stop4737" stop-color="#babdb6" offset="0"/>
   <stop id="stop4751" stop-color="#b6b9b2" offset=".61188"/>
   <stop id="stop4739" stop-color="#888a85" offset="1"/>
  </radialGradient>
  <radialGradient id="radialGradient5017" gradientUnits="userSpaceOnUse" cy="10.631" cx="17.643" gradientTransform="matrix(.93376 .25020 -.24154 .90145 .74566 -5.746)" r="13.284">
   <stop id="stop4685" stop-color="#eeeeec" offset="0"/>
   <stop id="stop4691" stop-color="#babdb6" stop-opacity="0" offset=".28366"/>
   <stop id="stop4687" stop-color="#babdb6" stop-opacity="0" offset="1"/>
  </radialGradient>
  <radialGradient id="radialGradient5009" gradientUnits="userSpaceOnUse" cy="44.544" cx="17.924" gradientTransform="matrix(.24632 .072887 -.24002 .81111 19.548 -1.4129)" r="1.9009">
   <stop id="stop3700" stop-color="#eeeeec" offset="0"/>
   <stop id="stop3702" stop-color="#eeeeec" stop-opacity="0" offset="1"/>
  </radialGradient>
  <radialGradient id="radialGradient5007" gradientUnits="userSpaceOnUse" cy="6.9539" cx="25.446" gradientTransform="matrix(.26603 .091156 -.040952 .11951 14.706 6.1676)" r="11.148">
   <stop id="stop3459" stop-color="#eeeeec" offset="0"/>
   <stop id="stop3461" stop-color="#eeeeec" stop-opacity="0" offset="1"/>
  </radialGradient>
  <radialGradient id="radialGradient4997" gradientUnits="userSpaceOnUse" cy="29.79" cx="11.679" gradientTransform="matrix(.76666 .58132 -.25044 .33028 8.2912 9.926)" r="12.084">
   <stop id="stop3642" stop-color="#fcf2e2" offset="0"/>
   <stop id="stop3644" stop-color="#f2bb65" offset="1"/>
  </radialGradient>
  <radialGradient id="svg_1" x1="1" xlink:href="#linearGradient3738" gradientUnits="userSpaceOnUse" cy="46.457" cx="14.098" gradientTransform="matrix(.11926 -.0028950 .011128 .45842 13.558 16.422)" r="2.65"/>
  <radialGradient id="radialGradient4999" gradientUnits="userSpaceOnUse" cy="31.259" cx="35.223" gradientTransform="matrix(-.26724 -.48530 .87959 -.48437 13.171 51.563)" r="13.483">
   <stop id="stop3660" stop-color="#8f5902" offset="0"/>
   <stop id="stop3668" stop-color="#c17d11" offset=".70825"/>
   <stop id="stop3662" stop-color="#c17d11" offset="1"/>
  </radialGradient>
  <radialGradient id="radialGradient5003" xlink:href="#linearGradient3614" gradientUnits="userSpaceOnUse" cy="20.145" cx="28.273" gradientTransform="matrix(.65630 -.68183 .86180 .82954 -11.78 18.329)" r="4.4262"/>
  <radialGradient id="radialGradient5005" gradientUnits="userSpaceOnUse" cy="6.3288" cx="28.114" gradientTransform="matrix(.26091 -.16027 .095297 .15514 6.9757 13.474)" r="10.579">
   <stop id="stop3267" stop-color="#eeeeec" stop-opacity=".381" offset="0"/>
   <stop id="stop3269" stop-color="#eeeeec" stop-opacity="0" offset="1"/>
  </radialGradient>
  <radialGradient id="radialGradient5001" xlink:href="#linearGradient3614" gradientUnits="userSpaceOnUse" cy="20.775" cx="17.093" gradientTransform="matrix(1.2169 0 0 1.0919 -6.7167 -6.321)" r="4.0414"/>
 </defs>
 <g id="layer1">
  <g id="g4948">
   <g fill-rule="evenodd">
    <g stroke="#2e3436">
     <path id="path4629" fill="#eeeeec" d="m19.982 0.1646l-1.1743 3.5846c0.51836 0.64573 2.2076 0.29981 2.3071-0.026755l-1.1328-3.5578z"/>
     <g fill="#c17d11">
      <path id="path2409" d="m6.4492 29.003c0.49289-2.8576 2.4391-4.3254 4.8895-5.1615-0.85353 1.6932-1.5189 3.233-1.5518 5.1117-0.73202 0.80576-2.3675 0.93604-3.3377 0.049818z"/>
      <path id="path2437" d="m34.422 29.141s-0.1711-2.0682-1.097-3.125c-0.90203-1.0469-2.3636-1.7639-3.6103-2.1514 0.31347 1.1146 1.032 2.6167 1.1848 4.7582-0.030195 0.40258-0.030195 0.40258-0.030195 0.40258 0.68034-0.54336 1.1632-0.36407 1.8519-0.18116 0.56173-0.43771 1.1051 0.021973 1.7009 0.2969z"/>
     </g>
    </g>
    <path id="path2445" fill="url(#radialGradient4997)" d="m12.602 24.355s-1.4694 1.6908-1.8921 3.1804c-0.42271 1.4895-0.42271 2.7577-0.34219 3.0999 0.080517 0.34219 0.50323 1.4493 0.94607 1.9525 0.44283 0.50323 1.6908 1.5298 1.6908 1.5298s1.6405 0.38245 2.0934 0.50323c0.4529 0.12077 2.6973 0.65419 3.4119 0.9058 0.71458 0.25161 1.5902 0.60387 1.6304 0.60387 0.040257 0 0.312-0.18116 0.9662-0.40258 0.65419-0.22142 2.1739-0.72464 2.7476-0.82528 0.57367-0.10065 0.85548-0.22142 1.087-0.18116 0.23148 0.04026 0.30194-0.1409 0.80516-0.27174 0.50323-0.13084 1.8519-0.18116 2.184-0.23149 0.33213-0.050323 1.5701-1.2581 1.7412-1.5298 0.17109-0.27174 0.20128-0.23148-0.030203-0.48309s0.3422-1.4191 0.33214-1.5399c-0.010073-0.12078 0.030186-0.58374-0.13085-1.4895-0.16103-0.90581-0.67431-2.2444-1.4392-3.3817-0.7649-1.1373-1.1373-1.4996-1.1373-1.4996s-0.87561 0.68439-1.6103 1.1775c-0.7347 0.49316-1.6204 1.248-2.3752 1.7311-0.75483 0.4831-2.2444 1.3184-3.0797 1.4392-0.83535 0.12077-3.6449-1.0628-4.279-1.5258-0.63407-0.46297-1.8905-1.4231-2.1019-1.6244-0.21136-0.2013-1.1172-1.0366-1.1474-1.1172-0.030193-0.080517-0.060388 0-0.070453-0.02013z"/>
    <g stroke="#2e3436">
     <path id="path2443" fill="url(#radialGradient4999)" d="m10.126 18.095c-0.10064 0.48309 0.12077 2.9791 0.38245 3.6433 0.26168 0.66426 0.82529 1.5902 0.88567 1.7714-0.76904 1.0998-1.2184 2.3086-1.5499 3.6031-0.30058 1.1247 0.081085 2.3399 0.45241 3.2355-0.24787-2.3694 0.87505-4.2496 2.2198-6.0737 0 0 0.65916 0.74478 1.102 1.0467 0.44284 0.30194 2.1639 1.7915 2.7979 2.2544 0.63407 0.46297 2.4557 1.6405 4.529 0.85548s3.0898-1.872 3.9855-2.496c0.89574-0.624 1.8317-1.1977 2.3148-1.6304 0.4994 0.5249 0.4339 0.32592 1.6304 2.2142 0.29187 0.53341 0.69445 1.4392 0.87561 2.023 0.18117 0.58374 0.26168 1.7512 0.27175 1.9726 0.010054 0.22142 0.64412-1.1675 0.74476-1.4292 0.10065-0.26168 0.18116-1.5499-0.2818-3.0697-0.46296-1.5197-0.46296-1.6908-0.63406-2.0532-0.17111-0.36232-0.28181-0.30194-0.25162-0.47303 0.030193-0.1711 0.56361-0.67433 0.84541-1.8016 0.28181-1.1272 0.30194-2.6168 0.060387-3.4722-0.53031-5.0806-5.8701-8.2096-11.218-7.376-4.5829 0.67635-11.05-0.2428-9.163 7.2552z"/>
     <path id="path2401" fill="#8f5902" d="m10.321 37.387c-0.058022-1.8385 1.2368-2.4987 2.7043-3.2594 0.037308-0.10353 1.2664-0.025776 1.9954 0.49097 2.0477 0.078331 3.3808 0.46836 5.0786 1.5302 0.085402 0.0854 0.014235 1.4518 0.014235 1.4518-1.7911 0.45523-3.5725 0.45015-5.309 0.21349-1.8726 0.27768-3.199 0.088558-4.4835-0.42699z"/>
     <path id="path4956" fill="none" d="m15.039 34.64s-0.32737 0.46259-0.40565 1.1458c-0.078289 0.6832-0.13522 2.0069-0.13522 2.0069"/>
     <g fill="#8f5902">
      <path id="path2405" d="m7.7994 28.881c-1.0465-0.53224-1.4446 0.29048-2.0007 1.0251-0.42774 0.86555-0.51328 1.3537-0.53341 1.56-0.020129 0.20633-0.035226 0.44284 0.080516 0.624s0.86554 0.80012 2.0783 0.9511c1.2128 0.15097 2.1941 0.025158 2.5866-0.090584 0.39252-0.11574 0.87058-0.50826 0.87058-0.67432-0.19467-0.72434-0.49367-1.534-0.74465-2.311-0.31216-0.96651-0.83756-1.4503-2.3372-1.0843z"/>
      <path id="path2407" d="m7.5667 30.965c-1.0433-0.42883-2.11-0.05999-2.2914 0.55641-0.04529 0.12078-0.052112 0.52373 0.18944 0.70993s0.97707 0.73758 1.5809 0.7728c1.199 0.24433 2.56 0.12948 3.4902-0.34078 0.68622-0.51258 0.067932-1.1838-0.32276-1.4801-0.905-0.3156-1.6761-0.54515-2.6464-0.21822z"/>
      <path id="path2411" d="m10.072 18.279s-0.042706 0.83265 0.056931 1.5087c0.099638 0.67608 0.30602 1.5016 0.36295 1.772 0.056932 0.27044 0.028462 0.24908 0.014235 0.27756-0.014235 0.028461-0.56934 1.1956-1.4589 2.0282-0.88958 0.83265-1.5443 1.217-1.8503 1.2525-0.30602 0.035583-0.61204-0.17792-0.61915-0.52664 0.00061-1.5749 0.51306-2.8068 1.402-4.0778 0.41277-0.52663 1.3024-1.7792 1.644-2.0282 0.3416-0.24909 0.4697-0.20639 0.44835-0.20639z"/>
     </g>
     <path id="path2413" fill="#555753" d="m10.064 18.257c-0.60891 0.13558-0.85484 0.86536-1.5386 0.39542-4.1984-1.2435-5.9132-5.4732-5.4538-9.5655-0.013926-0.62594 0.49611-1.814 1.1451-0.92861 1.35 1.4411 2.016 6.0779 4.5861 4.9188 0.9979-0.84681 1.6335-2.0248 2.4924-3.0007 1.9169-2.4065 4.5222-3.5445 7.5219-3.5474 0.46774 0.16464 1.8486-0.26953 1.2217 0.52368-0.48695 1.4343-0.45397 2.9719-0.3755 4.4648-2.8383 0.26729-5.5874 1.396-7.7883 3.2053-0.88465 1.0092-1.2496 2.3432-1.8111 3.5341z"/>
    </g>
    <path id="path2415" fill="url(#radialGradient5001)" d="m18.918 18.766c-0.64438 1.4504-3.1808 2.3513-4.8963 2.1777-1.5602-0.15791-1.8613-2.4295-1.3237-3.843 0.74255-1.9524 2.8841-2.618 4.6258-1.466 1.0835 0.71664 2.0202 2.1724 1.5941 3.1313z"/>
   </g>
   <path id="path2417" d="m17.409 18.424a0.9821 0.9821 0 1 1 -1.9642 0 0.9821 0.9821 0 1 1 1.9642 0z" stroke-dashoffset="2.2" stroke-linecap="square" stroke-width="14.279" fill="#2e3436"/>
   <path id="path2421" fill-rule="evenodd" fill="url(#radialGradient5003)" d="m22.974 20.072c1.3734 0.65872 2.8282 1.3746 4.167 0.798 1.1376-0.48991 1.2227-1.8416 1.0134-3.0158-0.33372-1.8723-2.2036-2.7996-3.9223-2.7976-1.6749 0.001871-2.5675 1.4227-3.0991 2.9277-0.43025 1.2181 0.86184 1.6181 1.841 2.0877z"/>
   <path id="path2419" d="m24.379 18.497a0.9821 0.9821 0 1 1 -1.9642 0 0.9821 0.9821 0 1 1 1.9642 0z" stroke-dashoffset="2.2" stroke-linecap="square" stroke-width="14.279" fill="#2e3436"/>
   <g fill-rule="evenodd">
    <g fill="#2e3436">
     <path id="path2423" d="m18.085 24.022c0.007122-0.028471-0.51951-0.82554-0.86823-1.0889-0.34872-0.26331-0.56221-0.39141-0.87535-0.40564-0.31313-0.014235-0.46258 0.028463-0.5124 0.1281-0.04982 0.099636 0.11386 0.2135 0.56222 0.46258 0.44835 0.24908 1.6938 0.91093 1.6938 0.90382z"/>
     <path id="path2425" d="m20.446 24.022c-0.007114-0.028471 0.51952-0.82554 0.86824-1.0889 0.34872-0.26331 0.56221-0.39141 0.87536-0.40564 0.31313-0.014235 0.46258 0.028463 0.5124 0.1281 0.049818 0.099636-0.11386 0.2135-0.56222 0.46258-0.44835 0.24908-1.6938 0.91093-1.6938 0.90382z"/>
     <path id="path2427" d="m14.021 24.11c1.5202 1.7886 3.0707 3.3523 5.3235 3.4727 2.149 0.11479 3.8532-1.9243 5.6604-3.0907-1.8238 1.0357-3.7051 2.5451-5.6747 2.6352-2.2428-0.15201-3.7009-1.5688-5.3093-3.0172z"/>
    </g>
    <g stroke="#2e3436">
     <path id="path2429" fill="#8f5902" d="m20.17 36.106l-0.0285 1.5443c1.6781 0.32072 3.3638 0.3854 5.0528 0.22062 1.8164 0.2047 3.6252 0.094669 5.2521-0.41277-0.11953-1.8356-1.2214-2.5199-2.5406-3.174-0.98809-0.030113-1.8184 0.070263-2.626 0.37718-1.9152 0.14774-3.6274 0.68562-5.1098 1.4447z"/>
     <path id="path2431" fill="none" d="m25.074 34.747s0.16368 0.74725 0.19215 1.3308c0.028469 0.58357-0.028463 1.8005-0.028463 1.8005"/>
     <path id="path2433" fill="#8f5902" d="m32.681 28.818c-1.0918-0.52301-1.6789-0.02704-1.9927 0.44835-0.17266 0.26162-0.74013 1.4376-0.86112 1.8361-0.12098 0.39853-0.2562 0.93228-0.19214 1.0817 0.064047 0.14945 0.54086 0.6405 1.2739 0.82554 0.73302 0.18503 1.1387 0.22774 1.7365 0.22774s1.6866-0.04982 2.4695-0.59069c0.78283-0.54087 0.1708-1.9998-0.11386-2.5549-0.57048-1.1066-1.2759-1.8104-2.32-1.2739z"/>
     <path id="path2435" fill-opacity="0" d="m29.642 32.163c0.49251-1.4138 1.6664-1.7643 3.0886-1.1244 1.4651-0.75358 2.0309 0.18383 2.747 1.0533-0.007114 0.1281-0.11287 0.59069-0.69644 0.76148-0.58357 0.17081-1.04 0.40566-2.2499 0.37007-1.2098-0.035583-1.9144-0.31107-2.1919-0.46764-0.27755-0.15656-0.71166-0.57851-0.69743-0.59275z"/>
     <path id="path2439" fill="#8f5902" d="m30.638 18.115s0.40258-0.10064 1.3889 1.2883 1.6908 2.2544 1.9525 3.1602c0.26168 0.9058 0.52336 1.9122 0.31201 2.2343-0.21135 0.32206-0.41266 0.40257-0.936 0.11071-0.52335-0.29187-1.8116-1.2983-2.3148-2.0934-0.50323-0.79509-0.624-1.0064-0.624-1.0064s0.35225-1.2379 0.32206-1.8418c-0.030193-0.60387-0.18116-1.6304-0.21136-1.7009-0.030193-0.070454 0.1409-0.1409 0.11071-0.15097z"/>
     <path id="path2441" fill="#555753" d="m20.332 6.5916c-0.93325 1.4313-0.65409 3.2132-0.61389 4.8251 1.3207 0.15047 5.0908 1.6511 7.5166 2.7077 1.0937 0.5826 1.8055 1.6447 2.3695 2.7092 0.60026 0.78697 1.2623 2.062 2.4277 1.8731 3.1012-0.65911 5.2517-2.8951 5.6779-6.0678 0.18182-1.6432-0.002781-3.386-0.81012-4.8489-0.76396-1.0029-1.409 0.62575-1.5923 1.2549-0.4715 1.3586-0.28217 3.726-1.6191 4.0274-2.6912 0.60677-4.6395-4.1442-7.3629-5.6961-1.8404-0.95273-3.9716-1.1611-5.9934-0.78466z"/>
     <g fill="none">
      <path id="path3251" d="m29.637 32.46s-0.79043 1.1318-1.1497 1.4371l-0.35928 0.3054"/>
      <path id="path3253" d="m10.792 32.065c0.3533 0.85409 1.3953 1.3153 2.0479 1.9401"/>
     </g>
    </g>
    <path id="path3255" filter="url(#filter3425)" fill="url(#radialGradient5005)" d="m10.064 18.257c-0.60891 0.13558-0.85484 0.86536-1.5386 0.39542-4.1984-1.2435-5.9132-5.4732-5.4538-9.5655-0.013926-0.62594 0.49611-1.814 1.1451-0.92861 1.35 1.4411 2.016 6.0779 4.5861 4.9188 0.9979-0.84681 1.6335-2.0248 2.4924-3.0007 1.9169-2.4065 4.5222-3.5445 7.5219-3.5474 0.46774 0.16464 1.8486-0.26953 1.2217 0.52368-0.48695 1.4343-0.45397 2.9719-0.3755 4.4648-2.8383 0.26729-5.5874 1.396-7.7883 3.2053-0.88465 1.0092-1.2496 2.3432-1.8111 3.5341z"/>
    <path id="path3429" fill="none" d="m20.332 6.5916c-0.93325 1.4313-0.65409 3.2132-0.61389 4.8251 1.3207 0.15047 5.0908 1.6511 7.5166 2.7077 1.0937 0.5826 1.8055 1.6447 2.3695 2.7092 0.60026 0.78697 1.2623 2.062 2.4277 1.8731 3.1012-0.65911 5.2517-2.8951 5.6779-6.0678 0.18182-1.6432-0.002781-3.386-0.81012-4.8489-0.76396-1.0029-1.409 0.62575-1.5923 1.2549-0.4715 1.3586-0.28217 3.726-1.6191 4.0274-2.6912 0.60677-4.6395-4.1442-7.3629-5.6961-1.8404-0.95273-3.9716-1.1611-5.9934-0.78466z"/>
    <path id="path3447" opacity=".622" d="m20.992 6.6424c-0.93325 1.4313-0.65409 3.2132-0.61389 4.8251 1.3207 0.15047 4.4303 1.6003 6.856 2.6569 1.0937 0.5826 1.8055 1.6447 2.3695 2.7092 0.60026 0.78697 1.2623 2.062 2.4277 1.8731 3.1012-0.65911 5.2517-2.8951 5.6779-6.0678 0.18182-1.6432-0.002781-3.386-0.81012-4.8489-0.76396-1.0029-1.409 0.62575-1.5923 1.2549-0.4715 1.3586-0.28217 3.726-1.6191 4.0274-2.6912 0.60677-4.6395-4.1442-7.3629-5.6961-1.8404-0.95273-3.3111-1.1103-5.3328-0.73385z" filter="url(#filter3609)" fill="url(#radialGradient5007)"/>
    <g stroke="#2e3436">
     <g fill="none">
      <path id="path3650" d="m8.0723 28.821c-0.33042-0.12046-0.72744 2.0362-0.47 2.1722"/>
      <path id="path3652" d="m32.728 28.745c-0.40154 0.089687-0.24711 2.3277 0.038116 2.2992"/>
      <path id="path3654" d="m11.278 23.263c0.30987 0.40434 0.36114 0.38983 1.006 0.73653"/>
      <path id="path3656" d="m27.374 24.251c0.32269-0.56686 1.6646-0.19863 2.3713-0.98803"/>
     </g>
     <path id="path4731" fill="#babdb6" d="m11.736 7.0776c-2.0688 2.4511-1.9671 4.6393-1.9671 4.6393l-0.0984 6.7612s3.2837 1.8305 3.0982 1.4745c-0.18553-0.35606 0.25882-5.4864 0.32785-5.4485 1.5834 0.57904 2.2718 0.86746 5.0654 1.2767 0 0-0.56909 6.5924-0.66182 6.9484 1.8759 0.55851 3.158 0.53269 5.034-0.025429-0.092726-0.35602-0.56908-6.923-0.56908-6.923 2.7935-0.5531 3.5147-0.80556 5.0654-1.2767 0.069044-0.037868 0.49699 5.0924 0.31146 5.4485-0.18549 0.356 3.1146-1.4745 3.1146-1.4745l-0.0984-6.7612s0.031551-1.8899-1.9016-4.4955c-4.236-5.7096-12.42-5.2393-16.721-0.14386z"/>
    </g>
    <path id="path3672" opacity=".372" d="m14.064 34.861zm-0.3262 2.5523zl0.3262-2.5523c-0.54993-0.28303-1.2799-0.31893-1.3049-0.24947-1.1085 0.5746-2.078 1.0676-2.0341 2.4563 0.88178 0.35392 1.7928 0.4784 3.0128 0.34541z" filter="url(#filter3734)" fill="url(#radialGradient5009)"/>
    <path id="path3683" opacity=".494" d="m14.726 37.357c0.15159-0.014526 0.29643-0.012634 0.45875-0.036697 1.2543 0.17094 2.5415 0.18201 3.8352-0.1468 0 0 0.043331-1.0026-0.018349-1.0643-1.2263-0.76694-2.191-1.0444-3.67-1.101l-0.6056 2.3488z" filter="url(#filter3800)" fill="url(#radialGradient5011)"/>
    <path id="path3804" opacity=".447" d="m24.98 37.51c-0.15158-0.014534-0.29643-0.012634-0.45876-0.036705-1.2543 0.17093-2.5415 0.18201-3.8352-0.1468 0 0-0.043339-1.0026 0.018349-1.0643 1.2263-0.76694 2.191-1.0444 3.67-1.101l0.6056 2.3488z" filter="url(#filter3800)" fill="url(#svg_1)"/>
    <g stroke="#2e3436">
     <path id="path4506" fill="url(#radialGradient5015)" d="m11.736 7.0776c-2.0688 2.4511-1.9671 4.6393-1.9671 4.6393l-0.0984 6.7612s3.2837 1.8305 3.0982 1.4745c-0.18553-0.35606 0.25882-5.4864 0.32785-5.4485 1.5834 0.57904 2.2718 0.86746 5.0654 1.2767 0 0-0.56909 6.5924-0.66182 6.9484 1.8759 0.55851 3.158 0.53269 5.034-0.025429-0.092726-0.35602-0.56908-6.923-0.56908-6.923 2.7935-0.5531 3.5147-0.80556 5.0654-1.2767 0.069044-0.037868 0.49699 5.0924 0.31146 5.4485-0.18549 0.356 3.1146-1.4745 3.1146-1.4745l-0.0984-6.7612s0.031551-1.8899-1.9016-4.4955c-4.236-5.7096-12.42-5.2393-16.721-0.14386z"/>
     <path id="path4511" fill="none" d="m9.9692 10.546c6.3988 3.6528 13.21 3.6221 20.147 0.16131"/>
     <path id="path4729" fill="url(#radialGradient5017)" d="m11.71 7.0399c-2.0688 2.4511-1.9671 4.6393-1.9671 4.6393l-0.0984 6.7612s3.2837 1.8305 3.0982 1.4745c-0.18553-0.35605 0.25882-5.4864 0.32785-5.4485 1.5834 0.57904 2.2718 0.86746 5.0654 1.2767 0 0-0.56908 6.5924-0.66181 6.9484 1.8759 0.55851 3.158 0.53269 5.034-0.025431-0.092737-0.35602-0.5691-6.923-0.5691-6.923 2.7936-0.5531 3.5147-0.80557 5.0654-1.2767 0.069036-0.037869 0.49699 5.0924 0.31146 5.4485-0.18549 0.356 3.1146-1.4745 3.1146-1.4745l-0.0984-6.7612s0.031551-1.8899-1.9016-4.4954c-4.236-5.7096-12.42-5.2393-16.721-0.14385z"/>
     <path id="path4513" fill="none" d="m17.514 3.4632l0.377 9.6832c-0.007095 0.053249 2.5607 0.23613 4.1146 0.035966 0.047241-0.006082 0.40983-9.845 0.40983-9.845-1.771-0.3967-3.4947-0.255-4.9014 0.12587z"/>
    </g>
    <g stroke-width=".006">
     <g fill="#eeeeec">
      <path id="path4621" d="m19.977 1.3862l-0.8751 2.6713c0.38629 0.48121 1.6451 0.22342 1.7193-0.019934l-0.8442-2.6514z"/>
      <path id="path4623" d="m19.978 7.9934l-0.9157 2.0222c0.4042 0.36429 1.7214 0.16914 1.799-0.015089l-0.8834-2.0071z"/>
      <path id="path4197" d="m20.049 10.728l-0.8639 1.5623c0.38136 0.28143 1.6242 0.13067 1.6974-0.011658l-0.8335-1.5506z"/>
      <path id="path4627" d="m19.978 4.8615l-0.9157 2.2561c0.4042 0.40643 1.7214 0.1887 1.799-0.016837l-0.8834-2.2393z"/>
     </g>
     <path id="path4631" fill="url(#linearGradient5019)" d="m19.987 1.3836l-0.8892 2.6676c0.38628 0.48121 1.6534 0.21796 1.7276-0.025405l-0.8384-2.6421zm0 3.4805l-0.9146 2.2611c0.40419 0.40643 1.7008 0.18014 1.7784-0.025406l-0.8638-2.2357zm0 3.1248l-0.9146 2.0324c0.40419 0.36429 1.7008 0.15882 1.7784-0.025405l-0.8638-2.007zm0.0508 2.7438l-0.8638 1.5497c0.38136 0.28144 1.6289 0.14233 1.7022 0l-0.8384-1.5497z"/>
    </g>
   </g>
  </g>
 </g>
</svg>
